<?xml version="1.0" encoding="utf-8"?>
<!-- Generator: Adobe Illustrator 23.0.3, SVG Export Plug-In . SVG Version: 6.00 Build 0)  -->
<svg version="1.1" id="Слой_1" xmlns="http://www.w3.org/2000/svg" xmlns:xlink="http://www.w3.org/1999/xlink" x="0px" y="0px"
	 viewBox="0 0 265 70" style="enable-background:new 0 0 265 70;" xml:space="preserve">
<style type="text/css">
	.st0{fill:#FFFFFF;}
</style>
<g>
	<path class="st0" d="M52.2568359,49.5253906c-3.1347656-7.2929688,2.8232422-18.2480469,10.2265625-27.9921875
		c-0.3007813,0.2573242-0.6503906,0.4731445-0.9511719,0.7304688c-5.9121094,4.6743164-11.9980469,9.4560547-16.0419922,14.8886719
		c-0.1210938,0.1953125-0.3505859,0.2158203-0.5419922,0.140625c-0.1445313-0.0800781-0.2578125-0.3007813-0.1816406-0.4921875
		c0.9169922-3.21875,2.9912109-6.9091797,4.8779297-10.121582c2.2460938-3.8432617,4.2695313-7.0678711,6.0634766-9.7641602
		c-1.2773438,1.2202148-2.6796875,2.5898438-4.2578125,4.0668945
		C32.6357422,38.9765625,19.1044922,41.5068359,18.9677734,41.5185547
		c-1.6826172,0.2871094-2.7148438,0.1015625-3.1455078-0.5996094c-0.5966797-1.0087891,0.3857422-2.4335938,0.5068359-2.6289063
		s0.3964844-0.2197266,0.5917969-0.0986328c0.1992188,0.1669922,0.2197266,0.3964844,0.0976563,0.5917969
		c-0.2880859,0.3945313-0.71875,1.2626953-0.4541016,1.6552734c0.1074219,0.1748047,0.5107422,0.5546875,2.2802734,0.2148438
		c0.1376953-0.0126953,13.3974609-2.4726563,32.0410156-20.3139648c2.8134766-2.6474609,5.1923828-4.9799805,7.2373047-6.9135742
		c6.6982422-9.3588867,9.7744141-10.5991211,9.9541016-10.6606445c0.0869141-0.0546875,0.2285156-0.0205078,0.3701172,0.0131836
		c0.0986328,0.0834961,0.1572266,0.2172852,0.1699219,0.3540039c0.3808594,0.6586914,0.5380859,0.8754883-9.8457031,10.8364258
		c-2.3447266,3.2519531-5.1044922,7.5566406-8.3955078,13.1538086c-1.4091797,2.3393555-2.8818359,5.0078125-3.9550781,7.5019531
		c4.0175781-4.6918945,9.3701172-8.9013672,14.5927734-13.0078125c1.2519531-0.9873047,2.5029297-1.9741211,3.7089844-2.9575195
		c1.2910156-1.590332,2.5849609-3.1347656,3.8837891-4.6337891c7.2539063-8.300293,7.4990234-8.1367188,7.9423828-7.8066406
		c0.3994141,0.3339844,0.2529297,0.762207-1.1308594,2.8681641c-0.0800781,0.1459961-0.1630859,0.2456055-0.2050781,0.2954102
		c-2.0693359,3.2280273-5.7041016,6.5019531-9.8388672,9.8662109c-7.359375,9.1860352-15.7294922,22.1079102-12.3173828,29.9291992
		c0.0664063,0.2255859-0.0058594,0.4628906-0.2265625,0.5742188l-0.1376953,0.0126953
		C52.5097656,49.7802734,52.3183594,49.7050781,52.2568359,49.5253906z M67.4150391,4.1611328
		c-0.9511719,0.7299805-2.6669922,2.2197266-5.1259766,5.2055664C65.0517578,6.6772461,66.6591797,5.0126953,67.4150391,4.1611328z
		 M74.4814453,8.9389648l0.2011719-0.3413086c0.0869141-0.0532227,0.125-0.1489258,0.2041016-0.2949219
		c-1.0136719,1.059082-2.7382813,2.9648438-5.6318359,6.265625l-0.8779297,1.0458984
		C70.9482422,13.3574219,73.1054688,11.1367188,74.4814453,8.9389648z"/>
	<path class="st0" d="M59.5058594,34.9033203c-0.1152344-0.2666016-0.2470703-0.7167969,0.2041016-1.3569336
		c0.3632813-0.5854492,1.1435547-1.1616211,2.0234375-1.6547852l0.0869141-0.0537109
		c1.1884766-0.6586914,2.5302734-1.1455078,3.2138672-1.2519531c0.3613281-0.078125,1.4990234-0.2709961,1.7382813,0.3544922
		c0.1162109,0.2666016,0.1103516,0.7285156-0.6738281,1.2597656c-1.0048828,0.6420898-2.9697266,0.8613281-4.109375,0.4995117
		c-0.7050781,0.3852539-1.3095703,0.8544922-1.59375,1.2944336c-0.1259766,0.1489258-0.2421875,0.390625-0.1396484,0.5200195
		c0.1171875,0.2666016,0.7773438,0.4384766,1.46875,0.4248047c1.1494141-0.0551758,5.4550781-0.9423828,10.8359375-3.262207
		c0.2246094-0.0654297,0.4619141,0.0053711,0.5273438,0.2304688c0.1123047,0.2211914-0.0048828,0.4614258-0.1845703,0.5234375
		c-5.2470703,2.2626953-9.4111328,3.1831055-10.9228516,3.3164063
		C60.7363281,35.7636719,59.8378906,35.5200195,59.5058594,34.9033203z M65.6220703,31.5029297l0.2587891-0.2075195
		l-0.6875,0.0605469c-0.4082031,0.0825195-1.1699219,0.3339844-1.9707031,0.6816406
		C64.1005859,32.0527344,65.1005859,31.8720703,65.6220703,31.5029297z"/>
	<path class="st0" d="M71.5585938,33.934082c-0.2353516-0.5791016-0.0214844-1.2905273,0.6630859-1.9042969
		c2.9462891-2.7055664,5.0332031-3.1201172,6.0009766-2.6054688c0.4785156,0.1884766,0.6972656,0.5844727,0.6464844,1.0507813
		c-0.0253906,0.2324219-0.2421875,0.3901367-0.4755859,0.3652344c-0.2324219-0.0258789-0.3867188-0.1967773-0.3603516-0.4301758
		c0.0371094-0.0957031,0.0292969-0.1875-0.1611328-0.2626953c-0.5322266-0.2763672-2.2734375-0.1230469-5.1357422,2.4833984
		c-0.3798828,0.4023438-0.4853516,0.78125-0.4228516,0.9594727c0.1113281,0.2216797,0.4892578,0.3261719,1.0390625,0.277832
		c1.9277344-0.1230469,7.6806641-1.8759766,10.4277344-3.1796875c0.2246094-0.0654297,0.4619141,0.0058594,0.5283203,0.2304688
		c0.1074219,0.175293,0.0361328,0.4121094-0.1855469,0.5239258c-2.8378906,1.3120117-8.5449219,3.0600586-10.6523438,3.2456055
		l-0.0449219,0.0043945C72.1435547,34.8056641,71.7246094,34.2426758,71.5585938,33.934082z"/>
	<path class="st0" d="M103.6337891,29.7246094c-4.4511719,1.8686523-8.2294922,2.9863281-8.8212891,3.0844727l-0.3623047,0.078125
		c-0.3203125,0.0283203-0.7861328-0.0229492-0.9560547-0.3769531c-0.2734375-0.4838867,0.0859375-1.1152344,1.3935547-2.5224609
		c0.421875-0.453125,0.5800781-0.7441406,0.6601563-0.8891602c-0.2294922,0.0205078-0.7285156,0.1103516-1.5751953,0.4619141
		c-2.0419922,0.9179688-5.0859375,3.0327148-5.9541016,3.6625977c-0.0830078,0.0996094-0.1669922,0.1992188-0.2548828,0.2529297
		c-0.1708984,0.1538086-0.4492188,0.1323242-0.6025391-0.0390625c-0.1503906-0.125-0.1279297-0.4038086-0.0029297-0.5532227
		c1.5732422-1.5234375,2.8974609-3.2558594,2.7734375-3.6137695l-0.0498047-0.0419922
		c-1.2763672-0.3491211-5.5263672,2.7485352-7.9306641,4.8061523c-0.0410156,0.050293-0.1328125,0.0581055-0.2246094,0.0664063
		c-0.1367188,0.0117188-0.2333984-0.0258789-0.3320313-0.109375c-0.1494141-0.1254883-0.1738281-0.4003906-0.0029297-0.5541992
		l3.8925781-4.5424805c0.1240234-0.1494141,0.3994141-0.1733398,0.5488281-0.0483398
		c0.1992188,0.1674805,0.2197266,0.3964844,0.0527344,0.5957031l-1.2568359,1.4492188
		c1.9560547-1.3725586,4.2783203-2.7768555,5.4589844-2.465332c0.3330078,0.1088867,0.5361328,0.3217773,0.6064453,0.5927734
		c0.1357422,0.4956055-0.2197266,1.1728516-0.7089844,1.9082031c1.1796875-0.75,2.5390625-1.5615234,3.6933594-2.0791016
		c0.9306641-0.4511719,2.1425781-0.8349609,2.6113281-0.2299805c0.3681641,0.5209961-0.2080078,1.3110352-0.8007813,1.9165039
		c-0.8427734,0.9057617-1.1279297,1.3457031-1.203125,1.5371094l0.4082031-0.0825195
		c0.5458984-0.0942383,4.3242188-1.2109375,8.6416016-3.0219727c0.2246094-0.065918,0.4619141,0.0053711,0.5283203,0.2304688
		C103.9755859,29.4179688,103.8583984,29.6586914,103.6337891,29.7246094z"/>
	<path class="st0" d="M114.578125,28.7607422c-1.5546875,0.690918-2.7744141,0.9829102-3.6904297,1.0639648
		c-1.1914063,0.1044922-1.90625-0.1552734-2.3544922-0.53125c-0.0498047-0.0419922-0.0957031-0.0380859-0.1005859-0.0834961
		c-2.1435547,1.8505859-4.7783203,2.8671875-6.0605469,2.9799805c-0.640625,0.0561523-0.8564453-0.2944336-0.9140625-0.4267578
		c-0.2353516-0.5795898,0.2529297-1.3149414,1.5800781-2.4936523c2.7382813-2.456543,4.7314453-2.3549805,5.4365234-1.6787109
		c0.2041016,0.2128906,0.2695313,0.4379883,0.2861328,0.6210938l0.0078125,0.0917969
		c0.0039063,0.0454102,0.0742188,0.3164063,0.4609375,0.5126953c0.53125,0.2768555,1.9423828,0.5678711,5.0048828-0.8095703
		c0.2246094-0.0654297,0.4628906,0.0053711,0.5283203,0.2304688
		C114.8701172,28.4121094,114.7578125,28.6987305,114.578125,28.7607422z M107.8779297,28.1508789
		c-0.4023438-0.3793945-2.0546875-0.2802734-4.3242188,1.7197266c-1.0273438,0.9208984-1.265625,1.3574219-1.3408203,1.5488281
		l0.1367188-0.012207c1.0996094-0.0966797,3.4580078-1.0888672,5.3896484-2.7363281
		C107.7353516,28.6254883,108.0771484,28.3183594,107.8779297,28.1508789z"/>
	<path class="st0" d="M114.3378906,33.9052734c1.9414063-2.0634766,1.2324219-2.7851563,1.4023438-2.9389648
		c-0.0488281-0.0419922-0.0537109-0.0874023-0.0576172-0.1333008c-0.0654297-0.2246094,0.0556641-0.4204102,0.4638672-0.5024414
		c0.3623047-0.078125,0.5117188,0.0473633,0.6279297,0.3139648c0.1738281,0.3999023,0.1982422,1.7363281-1.9794922,3.7285156
		c-0.0419922,0.0493164-0.1376953,0.012207-0.1787109,0.0615234
		C114.3115234,34.6459961,114.0751953,34.0668945,114.3378906,33.9052734z"/>
	<path class="st0" d="M127.2402344,30c-0.3447266-0.2470703-0.5605469-0.5966797-0.6386719-0.9589844
		c-0.0859375-0.4545898,0.0986328-0.9780273,0.4667969-1.5185547c0.9101563-1.1875,0.9238281-1.5576172,0.8701172-1.6455078
		c-0.1875-0.0297852-0.3212891,0.0283203-0.8125,0.2094727l-0.265625,0.1162109l-1.1015625,0.6049805
		c-0.6542969,0.4267578-1.4462891,0.8657227-2.2548828,1.1210938c-0.2207031,0.1123047-0.4619141-0.0053711-0.5283203-0.2299805
		c-0.0654297-0.2250977,0.0517578-0.4663086,0.2304688-0.527832c0.7626953-0.2519531,1.5087891-0.6870117,2.1220703-1.0639648
		c0.4414063-0.2236328,0.8339844-0.4887695,1.1923828-0.612793l0.2666016-0.1157227
		c0.5292969-0.2773438,0.8876953-0.4008789,1.3574219-0.3041992c0.4248047,0.1010742,0.5400391,0.3671875,0.6474609,0.5429688
		c0.1904297,0.5830078-0.2490234,1.3603516-1.0341797,2.3989258c-0.2929688,0.3486328-0.4052734,0.6352539-0.3398438,0.8603516
		c0.0166016,0.1831055,0.1201172,0.3129883,0.3154297,0.434082c0.6689453,0.2636719,6.0507813-0.9946289,11.2773438-3.4853516
		c0.2246094-0.065918,0.4619141,0.0053711,0.5283203,0.2304688c0.1074219,0.1748047,0.0361328,0.4121094-0.1845703,0.5234375
		c-3.9013672,1.8203125-8.6601563,3.347168-10.9033203,3.5449219C127.8554688,30.1762695,127.4355469,30.1210938,127.2402344,30z"/>
	<path class="st0" d="M150.2988281,25.6152344c-2.1630859,1.1142578-5.0732422,2.6625977-8.2167969,4.1850586l-3.6298828,1.7504883
		l-0.8095703,0.7636719c-5.8925781,5.4111328-7.8271484,6.5039063-8.6054688,6.5722656
		c-0.2744141,0.0244141-0.4238281-0.1005859-0.5195313-0.1386719c-0.5859375-0.3632813-0.2548828-1.3154297-0.1865234-1.5986328
		c0.5576172-1.5258789,4.1220703-3.5014648,9.6484375-6.2490234c0.8105469-0.7641602,1.6152344-1.5732422,2.4667969-2.3867188
		c-0.4414063,0.2236328-0.8457031,0.3515625-1.1660156,0.3798828c-0.7324219,0.0644531-0.9980469-0.3276367-1.1103516-0.5488281
		c-0.2275391-0.4873047-0.2304688-1.0415039-0.0371094-1.4731445c0.7783203-1.6376953,4.1689453-2.4443359,5.2568359-2.6782227
		l0.2695313-0.0703125c0.4052734-0.1279297,0.7910156,0.0688477,0.9980469,0.3276367
		c0.1376953-0.012207,0.2832031,0.0668945,0.3828125,0.1508789c0.1494141,0.1254883,0.1738281,0.3999023,0.0029297,0.5532227
		l-0.4638672,0.5029297c-0.0869141,0.0537109-0.1289063,0.1035156-0.1708984,0.1533203
		c-0.0458984,0.0043945-0.0419922,0.050293-0.0830078,0.1000977l-3.9150391,3.7597656l1.3291016-0.6245117
		c3.1435547-1.5234375,6.0107422-3.0219727,8.1289063-4.1313477c0.2207031-0.1113281,0.4580078-0.0400391,0.5654297,0.1347656
		S150.4736328,25.5078125,150.2988281,25.6152344z M135.7558594,32.8959961
		c-3.4433594,1.7802734-6.2910156,3.5083008-6.6181641,4.5053711c-0.1513672,0.3828125-0.1806641,0.5703125-0.1767578,0.6152344
		C129.7470703,38.0400391,132.421875,35.9125977,135.7558594,32.8959961z M139.2119141,28.1152344
		c1.1894531-0.1049805,3.7773438-2.1791992,4.6318359-2.9467773c0.1298828-0.1035156,0.1669922-0.199707,0.1630859-0.2451172
		c-0.0458984,0.0039063-0.0498047-0.0419922-0.0947266-0.0375977l-0.3173828,0.0737305
		c-3.390625,0.8066406-4.4208984,1.6821289-4.6933594,2.2592773c-0.1621094,0.2456055-0.1425781,0.4746094-0.0224609,0.7871094
		C138.9287109,28.0473633,138.9365234,28.1391602,139.2119141,28.1152344z"/>
	<path class="st0" d="M149.0830078,27.0146484c-0.1152344-0.2666016-0.2470703-0.7163086,0.2041016-1.3564453
		c0.3642578-0.5859375,1.1435547-1.1616211,2.0234375-1.6552734l0.0869141-0.0537109
		c1.1884766-0.6582031,2.5302734-1.1455078,3.2138672-1.2519531c0.3613281-0.078125,1.4990234-0.2705078,1.7382813,0.3549805
		c0.1162109,0.2661133,0.1103516,0.7280273-0.6738281,1.2592773c-1.0048828,0.6420898-2.9697266,0.8613281-4.109375,0.5
		c-0.7050781,0.3852539-1.3095703,0.8540039-1.59375,1.2939453c-0.1259766,0.1494141-0.2431641,0.3911133-0.1396484,0.5200195
		c0.1171875,0.2670898,0.7773438,0.4389648,1.46875,0.4248047c1.1494141-0.0546875,5.4550781-0.9418945,10.8359375-3.262207
		c0.2246094-0.0654297,0.4619141,0.0058594,0.5273438,0.230957c0.1123047,0.2207031-0.0048828,0.4614258-0.1845703,0.5234375
		c-5.2470703,2.2626953-9.4111328,3.1831055-10.9228516,3.315918
		C150.3134766,27.8754883,149.4150391,27.6318359,149.0830078,27.0146484z M155.1992188,23.6142578l0.2587891-0.2070313
		l-0.6875,0.0605469c-0.4072266,0.0820313-1.1699219,0.3339844-1.9707031,0.6811523
		C153.6787109,24.1640625,154.6777344,23.9838867,155.1992188,23.6142578z"/>
	<path class="st0" d="M21.5107422,63.0576172c-0.3134766,0.1191406-7.3095703,2.9511719-10.8818359,3.265625l-0.5498047,0.0488281
		c-0.6445313,0.0097656-1.03125-0.1865234-1.1552734-0.5449219C8.7958984,65.4228516,8.9853516,64.9453125,9.53125,64.34375
		l-0.3662109,0.0322266c-1.0996094,0.0966797-2.2978516,0.109375-2.8554688,0.0654297l-2.5458984,2.5322266
		c-0.0830078,0.0996094-0.1757813,0.1083984-0.2666016,0.1162109c-0.1376953,0.0117188-0.2333984-0.0263672-0.3330078-0.109375
		c-0.1533203-0.1708984-0.1738281-0.4003906-0.0029297-0.5537109l2.6298828-2.6318359
		c0.0458984-0.0039063,0.0878906-0.0537109,0.1298828-0.1025391L7.6611328,61.96875
		c0.1708984-0.1533203,0.4003906-0.1728516,0.5996094-0.0058594c0.1533203,0.1708984,0.1279297,0.4033203-0.0390625,0.6025391
		l-1.1064453,1.0673828c1.5693359,0,3.1269531-0.1376953,3.4765625-0.3525391
		c0.3837891-0.3574219,0.859375-0.7216797,1.3349609-1.0869141l0.3007813-0.2568359
		c0.0380859-0.0957031,0.125-0.1494141,0.2167969-0.1572266c0.1787109-0.0625,0.4160156,0.0097656,0.4785156,0.1884766
		c0.1650391,0.3085938-0.0058594,0.4619141-0.5273438,0.8300781c-0.5166016,0.4150391-0.9013672,0.7724609-1.2470703,1.0332031
		c0.0039063,0.0458984-0.0380859,0.0957031-0.0839844,0.0996094l-0.0458984,0.0039063
		c-1.0683594,0.9716797-1.3066406,1.4072266-1.3369141,1.5957031c0.046875-0.0039063,0.1875,0.0292969,0.4169922,0.0087891
		c3.1386719,0.0009766,11.0263672-3.1855469,11.0683594-3.2363281c0.2246094-0.0654297,0.4619141,0.0058594,0.5742188,0.2265625
		C21.8066406,62.7548828,21.6894531,62.9951172,21.5107422,63.0576172z"/>
	<path class="st0" d="M19.8339844,65.5126953c-0.2373047-0.0712891-0.3945313-0.2880859-0.4648438-0.5595703
		c-0.1103516-0.7285156,0.8388672-2.0117188,2.7451172-3.4257813c2.7695313-2.0898438,4.8505859-2.0429688,5.6220703-1.1416016
		c0.1074219,0.1757813,0.21875,0.3955078,0.2353516,0.5800781l0.4414063-0.2246094
		c0.2216797-0.1113281,0.4013672-0.1738281,0.5615234,0.0898438c0.2617188,0.3457031-0.0878906,0.5615234-0.2216797,0.6191406
		c-2.4775391,1.7412109-2.9707031,2.4306641-3.0878906,2.6728516c0.0917969-0.0087891,0.1875,0.0292969,0.3701172,0.0126953
		c3.1845703-0.0039063,10.3232422-2.8007813,11.1152344-3.2402344c0.2246094-0.0664063,0.4619141,0.0058594,0.5273438,0.2304688
		c0.0664063,0.2255859-0.0087891,0.4160156-0.1845703,0.5234375C36.4384766,62.25,29.3837891,64.9482422,26.0625,64.9638672
		c-0.6904297,0.0146484-1.0771484-0.1816406-1.2060547-0.5859375c-0.0615234-0.1787109-0.0361328-0.4121094,0.1230469-0.703125
		c-1.7216797,0.890625-3.5390625,1.7421875-4.5917969,1.8349609C20.1582031,65.5302734,19.9755859,65.5458984,19.8339844,65.5126953
		z M26.9667969,61.6074219c0.2089844-0.2490234,0.2802734-0.4853516,0.1220703-0.703125
		c-0.3603516-0.4296875-1.9501953-0.6591797-4.5019531,1.2734375c-1.7734375,1.3564453-2.2958984,2.2324219-2.4052734,2.5654297
		C20.8720703,64.7285156,23.0185547,63.9404297,26.9667969,61.6074219z"/>
	<path class="st0" d="M37.5957031,63.3486328c-0.2050781-0.7666016,1.4257813-2.15625,3.2480469-3.4707031l-0.5986328,0.0068359
		c-0.4052734,0.6357422-1.6894531,1.2568359-2.7988281,1.7695313c-0.1748047,0.1074219-0.4150391-0.0097656-0.5273438-0.2304688
		c-0.0625-0.1796875-0.0371094-0.4130859,0.1845703-0.5244141c0.8417969-0.3974609,1.7294922-0.7978516,2.1591797-1.1591797
		c-0.2871094-0.1132813-0.5322266-0.2763672-0.6513672-0.5888672c-0.1240234-0.3574219-0.3056641-0.8496094,0.0361328-1.1572266
		c0.0839844-0.0996094,0.3007813-0.2568359,0.6835938-0.1064453c0.3359375,0.1552734,0.8388672,0.6191406,1.0283203,1.2021484
		c0.5957031-0.0527344,1.4160156-0.1708984,2.1816406-0.3769531c0.2255859-0.0654297,0.4208984,0.0556641,0.4824219,0.234375
		c0.1083984,0.1757813,0.0332031,0.3662109-0.1386719,0.5195313c-1.9638672,1.28125-4.1210938,2.9941406-4.4345703,3.6220703
		c1.71875,0.125,7.2363281-2.2070313,9.2324219-3.1210938c0.2246094-0.0654297,0.4619141,0.0058594,0.5283203,0.2304688
		c0.1074219,0.1757813,0.0361328,0.4121094-0.1845703,0.5244141c-0.2675781,0.1152344-6.4355469,2.9199219-9.0917969,3.1533203
		l-0.5488281,0.0488281C37.8232422,63.8359375,37.6572266,63.5273438,37.5957031,63.3486328z"/>
	<path class="st0" d="M46.4414063,63.1699219c-0.2373047-0.0722656-0.4404297-0.2841797-0.4648438-0.5595703
		c-0.15625-0.7246094,0.8378906-2.0117188,2.6982422-3.421875c0.3046875-0.2119141,0.5175781-0.4150391,0.6884766-0.5683594
		l0.5175781-0.4150391c0.1708984-0.1533203,0.4042969-0.1279297,0.5576172,0.0429688
		c0.1533203,0.171875,0.1318359,0.4501953-0.0888672,0.5615234l-0.4257813,0.4072266
		c-0.2138672,0.203125-0.4257813,0.4072266-0.7304688,0.6181641c-1.8183594,1.3603516-2.3408203,2.2363281-2.4052734,2.5654297
		c1.0615234-0.0009766,5.5273438-2.7480469,7.7167969-4.0947266c0.4335938-0.3154297,0.6962891-0.4765625,0.9570313-0.1298828
		c0.2119141,0.3037109-0.0009766,0.5078125-0.5224609,0.8759766c-2.2402344,1.8125-2.6914063,2.4521484-2.7128906,2.7324219
		c0.0458984-0.0048828,0.1875,0.0283203,0.3701172,0.0126953c3.1845703-0.0039063,11.0732422-3.1904297,11.1152344-3.2402344
		c0.2246094-0.0664063,0.4609375,0.0058594,0.5273438,0.2294922c0.1113281,0.2216797-0.0058594,0.4628906-0.1845703,0.5244141
		c-0.3544922,0.1699219-8.109375,3.2988281-11.4306641,3.3144531c-0.6455078,0.0107422-1.03125-0.1855469-1.15625-0.5439453
		c-0.1240234-0.359375-0.0185547-0.7373047,0.3535156-1.2314453c-2.6767578,1.5742188-4.1396484,2.2568359-4.9648438,2.3291016
		C46.7197266,63.1904297,46.5830078,63.203125,46.4414063,63.1699219z"/>
	<path class="st0" d="M79.3046875,57.9677734c-0.3125,0.1191406-7.3085938,2.9511719-10.8808594,3.265625l-0.5498047,0.0488281
		c-0.6455078,0.0107422-1.03125-0.1855469-1.1552734-0.5439453c-0.1289063-0.4052734,0.0595703-0.8818359,0.6074219-1.484375
		l-0.3662109,0.0322266c-1.0996094,0.0966797-2.2978516,0.109375-2.8564453,0.0664063l-2.5458984,2.53125
		C61.4746094,61.984375,61.3828125,61.9921875,61.2910156,62c-0.1367188,0.0117188-0.2333984-0.0253906-0.3320313-0.109375
		c-0.1542969-0.1708984-0.1748047-0.4003906-0.0029297-0.5537109l2.6298828-2.6308594
		c0.0449219-0.0039063,0.0869141-0.0537109,0.1289063-0.1035156l1.7412109-1.7226563
		c0.1699219-0.1533203,0.3994141-0.1738281,0.5986328-0.0068359c0.1533203,0.171875,0.1279297,0.4042969-0.0390625,0.6035156
		l-1.1064453,1.0664063c1.5703125,0,3.1269531-0.1367188,3.4775391-0.3515625
		c0.3837891-0.3583984,0.8583984-0.7216797,1.3339844-1.0878906l0.3007813-0.2568359
		c0.0380859-0.0947266,0.1259766-0.1494141,0.2167969-0.1572266c0.1796875-0.0615234,0.4169922,0.0097656,0.4785156,0.1884766
		c0.1650391,0.3085938-0.0058594,0.4619141-0.5273438,0.8310547c-0.5166016,0.4150391-0.9003906,0.7724609-1.2470703,1.0332031
		c0.0039063,0.0449219-0.0371094,0.0947266-0.0830078,0.0986328l-0.0458984,0.0048828
		c-1.0683594,0.9707031-1.3066406,1.4072266-1.3369141,1.5947266c0.0458984-0.0039063,0.1875,0.0292969,0.4160156,0.0097656
		c3.1386719,0,11.0273438-3.1865234,11.0693359-3.2363281c0.2246094-0.0664063,0.4619141,0.0048828,0.5732422,0.2255859
		C79.6005859,57.6650391,79.484375,57.9052734,79.3046875,57.9677734z"/>
	<path class="st0" d="M77.6289063,60.4228516c-0.2373047-0.0712891-0.3955078-0.2880859-0.4648438-0.5595703
		c-0.1103516-0.7275391,0.8378906-2.0107422,2.7441406-3.4257813c2.7695313-2.0888672,4.8505859-2.0419922,5.6220703-1.140625
		c0.1074219,0.1748047,0.2197266,0.3955078,0.2363281,0.5791016l0.4414063-0.2246094
		c0.2207031-0.1113281,0.4003906-0.1728516,0.5615234,0.0898438c0.2617188,0.3457031-0.0888672,0.5625-0.2216797,0.6201172
		c-2.4785156,1.7402344-2.9707031,2.4296875-3.0878906,2.671875c0.0908203-0.0078125,0.1865234,0.0292969,0.3701172,0.0136719
		c3.1845703-0.0039063,10.3222656-2.8017578,11.1142578-3.2412109c0.2246094-0.0654297,0.4619141,0.0058594,0.5273438,0.2304688
		c0.0664063,0.2255859-0.0087891,0.4160156-0.1835938,0.5244141c-1.0546875,0.6005859-8.109375,3.2988281-11.4316406,3.3144531
		c-0.6904297,0.0146484-1.0771484-0.1816406-1.2050781-0.5869141c-0.0615234-0.1787109-0.0361328-0.4121094,0.1230469-0.703125
		c-1.7216797,0.890625-3.5390625,1.7421875-4.5927734,1.8349609C77.953125,60.4404297,77.7695313,60.4560547,77.6289063,60.4228516z
		 M84.7617188,56.5185547c0.2080078-0.25,0.2792969-0.4863281,0.1220703-0.7041016
		c-0.3603516-0.4287109-1.9501953-0.6582031-4.5029297,1.2744141c-1.7734375,1.3554688-2.2958984,2.2324219-2.4052734,2.5654297
		C78.6669922,59.6396484,80.8125,58.8505859,84.7617188,56.5185547z"/>
	<path class="st0" d="M94.0263672,57.9638672c-0.1162109-0.2666016-0.2480469-0.7167969,0.203125-1.3564453
		c0.3642578-0.5859375,1.1445313-1.1630859,2.0234375-1.6542969l0.0878906-0.0546875
		c1.1884766-0.6582031,2.5292969-1.1464844,3.2128906-1.2519531c0.3623047-0.078125,1.4990234-0.2705078,1.7382813,0.3544922
		c0.1162109,0.2666016,0.1113281,0.7285156-0.6738281,1.2587891c-1.0039063,0.6425781-2.9697266,0.8623047-4.109375,0.5009766
		c-0.7041016,0.3857422-1.3095703,0.8525391-1.59375,1.2939453c-0.1259766,0.1494141-0.2421875,0.390625-0.1386719,0.5195313
		c0.1162109,0.2666016,0.7773438,0.4394531,1.4677734,0.4248047c1.1494141-0.0546875,5.4560547-0.9423828,10.8359375-3.2617188
		c0.2246094-0.0664063,0.4619141,0.0058594,0.5283203,0.2304688c0.1113281,0.2207031-0.0058594,0.4619141-0.1845703,0.5234375
		C102.1767578,57.7539063,98.0117188,58.6738281,96.5,58.8066406
		C95.2558594,58.8242188,94.3574219,58.5800781,94.0263672,57.9638672z M100.1416016,54.5644531l0.2587891-0.2080078
		l-0.6865234,0.0605469c-0.4082031,0.0810547-1.1708984,0.3339844-1.9707031,0.6806641
		C98.6210938,55.1123047,99.6201172,54.9326172,100.1416016,54.5644531z"/>
	<path class="st0" d="M126.9326172,53.7734375c-4.4511719,1.8691406-8.2285156,2.9863281-8.8203125,3.0849609L117.75,56.9355469
		c-0.3203125,0.0283203-0.7861328-0.0224609-0.9560547-0.3769531c-0.2734375-0.4833984,0.0859375-1.1142578,1.3925781-2.5224609
		c0.4228516-0.4521484,0.5810547-0.7441406,0.6601563-0.8886719c-0.2285156,0.0195313-0.7285156,0.1103516-1.5742188,0.4619141
		c-2.0419922,0.9179688-5.0869141,3.0322266-5.9541016,3.6621094c-0.0839844,0.0996094-0.1669922,0.1992188-0.2548828,0.2529297
		c-0.1708984,0.1533203-0.4501953,0.1318359-0.6035156-0.0390625c-0.1494141-0.125-0.1279297-0.4042969-0.0019531-0.5537109
		c1.5732422-1.5224609,2.8974609-3.2548828,2.7734375-3.6132813l-0.0498047-0.0419922
		c-1.2763672-0.3476563-5.5273438,2.7480469-7.9306641,4.8066406c-0.0410156,0.0498047-0.1328125,0.0576172-0.2246094,0.0654297
		c-0.1367188,0.0126953-0.2333984-0.0253906-0.3330078-0.1083984c-0.1494141-0.125-0.1728516-0.4003906-0.0019531-0.5537109
		l3.8916016-4.5429688c0.125-0.1494141,0.4003906-0.1738281,0.5498047-0.0488281
		c0.1992188,0.1669922,0.2197266,0.3964844,0.0527344,0.5957031l-1.2578125,1.4492188
		c1.9560547-1.3730469,4.2792969-2.7763672,5.4599609-2.4658203c0.3330078,0.109375,0.5361328,0.3222656,0.6064453,0.5927734
		c0.1357422,0.4960938-0.2197266,1.1738281-0.7089844,1.9091797c1.1796875-0.75,2.5390625-1.5625,3.6933594-2.0791016
		c0.9296875-0.4511719,2.1416016-0.8349609,2.6103516-0.2304688c0.3691406,0.5214844-0.2070313,1.3105469-0.7998047,1.9169922
		c-0.84375,0.9052734-1.1279297,1.3447266-1.203125,1.5371094l0.4082031-0.0820313
		c0.5458984-0.09375,4.3232422-1.2119141,8.6416016-3.0224609c0.2246094-0.0664063,0.4619141,0.0048828,0.5273438,0.2294922
		C127.2744141,53.4667969,127.1582031,53.7070313,126.9326172,53.7734375z"/>
	<path class="st0" d="M125.6328125,55.2734375c-0.2353516-0.5791016-0.0214844-1.2919922,0.6630859-1.90625
		c2.9472656-2.7050781,5.0332031-3.1191406,6.0019531-2.6044922c0.4775391,0.1884766,0.6972656,0.5849609,0.6464844,1.0507813
		c-0.0263672,0.2324219-0.2431641,0.3896484-0.4755859,0.3642578c-0.2333984-0.0253906-0.3876953-0.1962891-0.3613281-0.4287109
		c0.0380859-0.0966797,0.0292969-0.1875-0.1611328-0.2636719c-0.5322266-0.2753906-2.2724609-0.1220703-5.1357422,2.4833984
		c-0.3798828,0.4023438-0.484375,0.78125-0.4228516,0.9599609c0.1113281,0.2207031,0.4902344,0.3271484,1.0390625,0.2783203
		c1.9287109-0.1230469,7.6816406-1.8759766,10.4277344-3.1796875c0.2246094-0.0664063,0.4619141,0.0058594,0.5283203,0.2294922
		c0.1074219,0.1757813,0.0361328,0.4121094-0.1845703,0.5244141c-2.8388672,1.3115234-8.5458984,3.0605469-10.6523438,3.2460938
		L127.5,56.03125C126.2177734,56.1445313,125.7988281,55.5810547,125.6328125,55.2734375z"/>
	<path class="st0" d="M155.7841797,51.2324219c-2.8388672,1.3115234-8.5458984,3.0605469-10.6523438,3.2460938l-0.0917969,0.0078125
		c-0.5957031,0.0527344-0.8945313-0.1972656-1.0566406-0.4609375c-0.2685547-0.4375-0.1083984-1.2363281,0.3984375-2.2958984
		c-1.6015625,1.2021484-4,2.7978516-6.0703125,3.3955078c-0.2255859,0.0664063-0.4951172,0.1357422-0.7246094,0.15625
		c-0.4121094,0.0361328-0.7861328-0.0234375-0.9980469-0.3271484c-0.3232422-0.5253906-0.0625-1.2402344,1.0947266-2.7734375
		c0.1201172-0.1953125,0.3496094-0.2158203,0.5449219-0.0947266s0.2197266,0.3964844,0.0986328,0.5917969
		c-0.9111328,1.1884766-1.0576172,1.6171875-1.0419922,1.7998047c0.0917969-0.0087891,0.3251953,0.0175781,0.8164063-0.1640625
		c1.3076172-0.3466797,2.7587891-1.1669922,4.0683594-2.0205078c-0.2792969-0.0214844-0.5205078-0.1386719-0.7197266-0.3056641
		c-0.2480469-0.2089844-0.3730469-0.5673828-0.3164063-0.9873047c0.0429688-1.0654297,1.5546875-1.1982422,3.7988281-1.3964844
		l0.9121094-0.1259766c0.1835938-0.0166016,0.3330078,0.1083984,0.4365234,0.2382813l0.0195313,0.2294922
		c0.0039063,0.0458984,0.0126953,0.1367188-0.0292969,0.1865234c0.0087891,0.0917969-0.0332031,0.1416016-0.0751953,0.1914063
		c0,0-0.0458984,0.0039063-0.0419922,0.0498047c-1.1865234,1.7197266-1.6318359,2.9589844-1.4658203,3.2685547
		c0.0498047,0.0410156,0.140625,0.0332031,0.3242188,0.0166016c1.9287109-0.1230469,7.6816406-1.8759766,10.4277344-3.1796875
		c0.1787109-0.0615234,0.4619141,0.0058594,0.5283203,0.2304688
		C156.0761719,50.8837891,156.0048828,51.1210938,155.7841797,51.2324219z M141.9970703,51.3847656
		c0.1005859,0.0839844,0.2412109,0.1181641,0.4248047,0.1015625c0.6416016-0.0556641,1.5244141-0.5029297,2.2587891-1.0761719
		c-1.2324219,0.1552734-2.7402344,0.3339844-2.7578125,0.6591797
		C141.9316406,51.1601563,141.9433594,51.2978516,141.9970703,51.3847656z"/>
	<path class="st0" d="M177.3378906,50.7197266C177.1025391,50.140625,177.3154297,49.4287109,178,48.8144531
		c2.9472656-2.7050781,5.0332031-3.1201172,6.0019531-2.6044922c0.4775391,0.1875,0.6972656,0.5839844,0.6464844,1.0507813
		c-0.0263672,0.2324219-0.2431641,0.3896484-0.4755859,0.3642578c-0.2333984-0.0253906-0.3867188-0.1962891-0.3613281-0.4287109
		c0.0371094-0.0966797,0.0292969-0.1884766-0.1611328-0.2636719c-0.5322266-0.2753906-2.2724609-0.1220703-5.1357422,2.4833984
		c-0.3798828,0.4023438-0.484375,0.78125-0.4228516,0.9599609c0.1113281,0.2207031,0.4902344,0.3261719,1.0390625,0.2783203
		c1.9287109-0.1240234,7.6816406-1.8769531,10.4277344-3.1806641c0.2246094-0.0654297,0.4628906,0.0058594,0.5283203,0.2304688
		c0.1083984,0.1757813,0.0361328,0.4121094-0.1845703,0.5244141c-2.8388672,1.3105469-8.5458984,3.0595703-10.6523438,3.2451172
		l-0.0458984,0.0048828C177.921875,51.5908203,177.5039063,51.0273438,177.3378906,50.7197266z"/>
	<path class="st0" d="M207.2148438,34.1499023c0.0478516,3.6879883-12.7607422,10.215332-14.5742188,11.1147461
		l-0.2509766,0.2988281c-0.2958984,0.3027344-0.6757813,0.7050781-1.1357422,1.2539063
		c2.640625-1.9863281,4.7773438-2.359375,5.6582031-1.7910156c0.4853516,0.2802734,0.5800781,0.8251953,0.3544922,1.3994141
		c-0.3935547,0.7734375-1.1582031,1.5332031-2.0253906,2.1630859c1.8115234-0.390625,4.2480469-1.0195313,7.5527344-2.2802734
		c0.2246094-0.0664063,0.4619141,0.0058594,0.5273438,0.2304688c0.0664063,0.2246094-0.0048828,0.4619141-0.2294922,0.5273438
		c-4.9130859,1.8642578-7.9111328,2.4042969-9.7773438,2.7070313c-0.7080078,0.3398438-1.3330078,0.5791016-1.8330078,0.6689453
		l-0.4091797,0.0820313c-0.2744141,0.0244141-0.5068359-0.0009766-0.65625-0.1259766
		c-0.0996094-0.0830078-0.1533203-0.1708984-0.1650391-0.3085938c-0.0087891-0.0917969,0.0292969-0.1875,0.1123047-0.2871094
		c0.4179688-0.4980469,1.1005859-0.6044922,2.3330078-0.7587891l0.3632813-0.078125
		c1.3710938-0.6748047,2.9345703-1.7822266,3.4375-2.8867188c0.1132813-0.2880859,0.0166016-0.3251953-0.0322266-0.3671875
		c-0.7353516-0.4892578-4.0839844,0.2675781-8.1015625,4.9599609c-0.1708984,0.1533203-0.4003906,0.1728516-0.5957031,0.0517578
		c-0.0498047-0.0419922-0.1035156-0.1289063-0.1074219-0.1748047l-0.0087891-0.0908203
		c-0.0117188-0.1386719,0.0263672-0.234375,0.0683594-0.2841797c1.9150391-2.890625,3.3046875-4.3984375,4.0644531-5.203125
		l0.2958984-0.3027344c6.1005859-6.7226563,12.9296875-11.9848633,14.6503906-11.3056641
		C207.0166016,33.4755859,207.2285156,33.7797852,207.2148438,34.1499023z M206.4248047,34.081543l-0.1875-0.0297852
		c-1.1904297,0.1049805-6.0322266,3.3007813-11.9560547,9.40625c4.6777344-2.4433594,12.1738281-6.9335938,12.1513672-9.284668
		L206.4248047,34.081543z"/>
	<path class="st0" d="M214.0820313,46.0986328c-1.5537109,0.6904297-2.7744141,0.9824219-3.6904297,1.0634766
		c-1.1904297,0.1044922-1.90625-0.1552734-2.3544922-0.53125c-0.0488281-0.0419922-0.0957031-0.0371094-0.0996094-0.0830078
		c-2.1445313,1.8505859-4.7783203,2.8662109-6.0605469,2.9794922c-0.640625,0.0566406-0.8564453-0.2929688-0.9140625-0.4277344
		c-0.2363281-0.5791016,0.2529297-1.3144531,1.5800781-2.4921875c2.7373047-2.4560547,4.7314453-2.3554688,5.4365234-1.6787109
		c0.2041016,0.2128906,0.2695313,0.4375,0.2861328,0.6201172l0.0078125,0.0927734
		c0.0039063,0.0458984,0.0732422,0.3164063,0.4609375,0.5136719c0.5322266,0.2753906,1.9423828,0.5664063,5.0048828-0.8105469
		c0.2246094-0.0664063,0.4619141,0.0058594,0.5283203,0.2304688C214.375,45.75,214.2617188,46.0371094,214.0820313,46.0986328z
		 M207.3828125,45.4882813c-0.4023438-0.3798828-2.0556641-0.2802734-4.3251953,1.7197266
		c-1.0263672,0.921875-1.2646484,1.3583984-1.3398438,1.5488281l0.1367188-0.0117188
		c1.0996094-0.0966797,3.4580078-1.0888672,5.3896484-2.7363281
		C207.2402344,45.9628906,207.5820313,45.65625,207.3828125,45.4882813z"/>
	<path class="st0" d="M230.9892578,35.7949219c-0.2207031,0.1113281-0.4580078,0.0400391-0.5654297-0.1342773
		c-0.3730469-0.5673828-1.6474609-0.362793-9.1601563,0.8061523l-0.0869141,0.0537109l0.2607422,0.3466797
		c0.9912109,1.296875,3.0234375,3.9335938-2.3085938,8.3720703c0.0039063,0.0458984,0.0039063,0.0458984-0.0371094,0.0957031
		c-2.1748047,2.0380859-4.9873047,3.1152344-6.2695313,3.2285156c-0.6865234,0.0605469-0.9023438-0.2890625-0.9609375-0.4238281
		c-0.2353516-0.5791016,0.2539063-1.3144531,1.5810547-2.4921875c2.7373047-2.4560547,4.7763672-2.359375,5.4365234-1.6787109
		c0.0996094,0.0830078,0.1533203,0.171875,0.2080078,0.2587891c4.1054688-3.6845703,2.5419922-5.7158203,1.7001953-6.8886719
		c-0.3603516-0.4287109-0.6220703-0.7753906-0.4707031-1.1582031c0.1503906-0.3823242,0.6503906-0.472168,0.7880859-0.484375
		c8.6445313-1.4072266,9.328125-1.5136719,9.9736328-0.4628906
		C231.2314453,35.4047852,231.1611328,35.6416016,230.9892578,35.7949219z M218.2822266,44.5283203
		c-0.3564453-0.3837891-2.0556641-0.2802734-4.3251953,1.7197266c-0.9814453,0.9179688-1.265625,1.3583984-1.2949219,1.5449219
		l0.0917969-0.0078125c1.0986328-0.0966797,3.4580078-1.0888672,5.3896484-2.7363281l0.0791016-0.1455078
		C218.4316406,44.6542969,218.3320313,44.5703125,218.2822266,44.5283203z"/>
	<path class="st0" d="M235.1025391,44.2480469c-1.5546875,0.6904297-2.7753906,0.9824219-3.6914063,1.0625
		c-1.1904297,0.1054688-1.90625-0.1542969-2.3544922-0.5302734c-0.0498047-0.0419922-0.0957031-0.0380859-0.0996094-0.0839844
		c-2.1445313,1.8505859-4.7773438,2.8671875-6.0605469,2.9794922c-0.6416016,0.0566406-0.8564453-0.2929688-0.9140625-0.4267578
		c-0.2353516-0.5791016,0.2539063-1.3144531,1.5800781-2.4931641c2.7382813-2.4560547,4.7304688-2.3544922,5.4375-1.6787109
		c0.203125,0.2138672,0.2685547,0.4384766,0.2851563,0.6210938l0.0078125,0.0917969
		c0.0039063,0.0458984,0.0742188,0.3164063,0.4609375,0.5136719c0.53125,0.2753906,1.9423828,0.5673828,5.0048828-0.8105469
		c0.2255859-0.0654297,0.4619141,0.0058594,0.5283203,0.2304688
		C235.3945313,43.8994141,235.28125,44.1855469,235.1025391,44.2480469z M228.4023438,43.6376953
		c-0.4023438-0.3808594-2.0556641-0.2802734-4.3251953,1.71875c-1.0263672,0.921875-1.265625,1.3583984-1.3408203,1.5498047
		L222.875,46.8935547c1.0976563-0.0966797,3.4580078-1.0878906,5.3886719-2.7363281
		C228.2597656,44.1123047,228.6025391,43.8056641,228.4023438,43.6376953z"/>
	<path class="st0" d="M246.0478516,43.2841797c-2.1640625,1.1132813-5.0732422,2.6621094-8.2167969,4.1845703l-3.6298828,1.7509766
		l-0.8095703,0.7636719c-5.8925781,5.4101563-7.8271484,6.5048828-8.6054688,6.5732422
		c-0.2753906,0.0244141-0.4248047-0.1025391-0.5195313-0.1396484c-0.5859375-0.3632813-0.2539063-1.3154297-0.1875-1.5996094
		c0.5576172-1.5253906,4.1220703-3.5009766,9.6494141-6.2490234c0.8105469-0.7636719,1.6152344-1.5722656,2.4677734-2.3857422
		c-0.4433594,0.2226563-0.8476563,0.3515625-1.1669922,0.3789063c-0.7333984,0.0654297-0.9990234-0.3271484-1.1103516-0.5478516
		c-0.2285156-0.4873047-0.2304688-1.0419922-0.0371094-1.4736328c0.7783203-1.6376953,4.1679688-2.4443359,5.2558594-2.6777344
		l0.2705078-0.0703125c0.4042969-0.1279297,0.7910156,0.0683594,0.9980469,0.3271484
		c0.1376953-0.0126953,0.2832031,0.0673828,0.3828125,0.1513672c0.1494141,0.125,0.1738281,0.3994141,0.0029297,0.5537109
		l-0.4638672,0.5009766c-0.0869141,0.0556641-0.1289063,0.1054688-0.1708984,0.1542969
		c-0.0458984,0.0039063-0.0410156,0.0498047-0.0830078,0.1005859l-3.9160156,3.7597656l1.3300781-0.625
		c3.1425781-1.5224609,6.0097656-3.0214844,8.1279297-4.1308594c0.2216797-0.1123047,0.4580078-0.0410156,0.5664063,0.1337891
		C246.2900391,42.8935547,246.2226563,43.1757813,246.0478516,43.2841797z M231.5048828,50.5644531
		c-3.4433594,1.7802734-6.2919922,3.5068359-6.6191406,4.5058594c-0.1503906,0.3828125-0.1796875,0.5693359-0.1757813,0.6152344
		C225.4960938,55.7089844,228.1699219,53.5810547,231.5048828,50.5644531z M234.9609375,45.7832031
		c1.1904297-0.1044922,3.7763672-2.1787109,4.6318359-2.9453125c0.1289063-0.1054688,0.1669922-0.2001953,0.1630859-0.2460938
		c-0.0458984,0.0039063-0.0498047-0.0419922-0.0957031-0.0380859l-0.3173828,0.0742188
		c-3.3886719,0.8066406-4.4199219,1.6816406-4.6923828,2.2597656c-0.1630859,0.2451172-0.1425781,0.4736328-0.0224609,0.7871094
		C234.6767578,45.7167969,234.6855469,45.8076172,234.9609375,45.7832031z"/>
	<path class="st0" d="M244.3720703,45.7392578c-0.2382813-0.0712891-0.3955078-0.2880859-0.4648438-0.5595703
		c-0.1103516-0.7285156,0.8378906-2.0117188,2.7441406-3.4257813c2.7695313-2.0898438,4.8505859-2.0429688,5.6230469-1.1416016
		c0.1064453,0.1757813,0.21875,0.3955078,0.234375,0.5800781l0.4423828-0.2246094
		c0.2216797-0.1113281,0.4003906-0.1738281,0.5615234,0.0898438c0.2607422,0.3457031-0.0888672,0.5615234-0.2216797,0.6191406
		c-2.4775391,1.7412109-2.9707031,2.4306641-3.0878906,2.6728516c0.0908203-0.0087891,0.1865234,0.0292969,0.3701172,0.0126953
		c3.1845703-0.0039063,10.3222656-2.8007813,11.1152344-3.2402344c0.2236328-0.0664063,0.4619141,0.0058594,0.5273438,0.2304688
		c0.0664063,0.2255859-0.0097656,0.4160156-0.1845703,0.5234375c-1.0556641,0.6005859-8.109375,3.2988281-11.4316406,3.3144531
		c-0.6904297,0.0146484-1.0771484-0.1816406-1.2041016-0.5859375c-0.0634766-0.1787109-0.0361328-0.4121094,0.1220703-0.703125
		c-1.7216797,0.890625-3.5390625,1.7421875-4.5917969,1.8349609
		C244.6953125,45.7568359,244.5126953,45.7724609,244.3720703,45.7392578z M251.5048828,41.8339844
		c0.2080078-0.2490234,0.2802734-0.4853516,0.1220703-0.703125c-0.3603516-0.4296875-1.9492188-0.6591797-4.5029297,1.2734375
		c-1.7724609,1.3564453-2.2949219,2.2324219-2.4042969,2.5654297
		C245.4101563,44.9550781,247.5566406,44.1669922,251.5048828,41.8339844z"/>
</g>
</svg>
